HIERARCHY
ROOT root     
{
	OFFSET 0.0000 0.0000 0.0000
	CHANNELS 6 Xposition Yposition Zposition Zrotation Yrotation Xrotation
	JOINT pelvis   
	{
		OFFSET 0.0000 0.0000 0.0000
		CHANNELS 3 Zrotation Yrotation Xrotation
		JOINT thorax   
		{
			OFFSET 0.0000 23.0750 -5.0000
			CHANNELS 3 Zrotation Yrotation Xrotation
			JOINT rclavicle
			{
				OFFSET 0.0000 28.0009 0.0000
				CHANNELS 3 Zrotation Yrotation Xrotation
				JOINT rhumerus 
				{
					OFFSET -18.5725 5.5939 0.0000
					CHANNELS 3 Zrotation Yrotation Xrotation
					JOINT rradius  
					{
						OFFSET -24.8459 0.0000 0.0000
						CHANNELS 3 Zrotation Yrotation Xrotation
						JOINT rhand    
						{
							OFFSET -24.5477 0.0000 0.0000
							CHANNELS 3 Zrotation Yrotation Xrotation
							End Site
							{
								OFFSET -8.1826 0.0000 0.0000
							}
						}
					}
				}
			}
			JOINT lclavicle
			{
				OFFSET 0.0000 28.0009 0.0000
				CHANNELS 3 Zrotation Yrotation Xrotation
				JOINT lhumerus 
				{
					OFFSET 18.5725 5.5939 0.0000
					CHANNELS 3 Zrotation Yrotation Xrotation
					JOINT lradius  
					{
						OFFSET 24.8459 0.0000 0.0000
						CHANNELS 3 Zrotation Yrotation Xrotation
						JOINT lhand    
						{
							OFFSET 24.5477 0.0000 0.0000
							CHANNELS 3 Zrotation Yrotation Xrotation
							End Site
							{
								OFFSET 8.1826 0.0000 0.0000
							}
						}
					}
				}
			}
			JOINT head     
			{
				OFFSET 0.0000 35.2030 0.0000
				CHANNELS 3 Zrotation Yrotation Xrotation
				End Site
				{
					OFFSET 0.0000 11.7343 0.0000
				}
			}
		}
		JOINT rfemur   
		{
			OFFSET -8.2817 0.0000 0.0000
			CHANNELS 3 Zrotation Yrotation Xrotation
			JOINT rtibia   
			{
				OFFSET 0.0000 -43.3627 0.0000
				CHANNELS 3 Zrotation Yrotation Xrotation
				JOINT rfoot    
				{
					OFFSET 0.0000 -38.2947 0.0000
					CHANNELS 3 Zrotation Yrotation Xrotation
					JOINT rtoes    
					{
						OFFSET 0.0000 0.0000 16.6054
						CHANNELS 3 Zrotation Yrotation Xrotation
						End Site
						{
							OFFSET 0.0000 0.0000 5.5351
						}
					}
				}
			}
		}
		JOINT lfemur   
		{
			OFFSET 8.2817 0.0000 0.0000
			CHANNELS 3 Zrotation Yrotation Xrotation
			JOINT ltibia   
			{
				OFFSET 0.0000 -43.3627 0.0000
				CHANNELS 3 Zrotation Yrotation Xrotation
				JOINT lfoot    
				{
					OFFSET 0.0000 -38.2947 0.0000
					CHANNELS 3 Zrotation Yrotation Xrotation
					JOINT ltoes    
					{
						OFFSET 0.0000 0.0000 16.6054
						CHANNELS 3 Zrotation Yrotation Xrotation
						End Site
						{
							OFFSET 0.0000 0.0000 5.5351
						}
					}
				}
			}
		}
	}
}
MOTION
Frames: 21
Frame Time: .0333333
30.555 86.068 -2.3396 -175.106 33.0118 -160.555 0 -0 0 -7.70368 6.50641 -4.92568 21.5174 -7.70603 1.72067e-05 39.2606 3.65533 18.6147 -5.80199e-06 86.9406 -5.50004e-06 -2.26114 6.20075 -0.122502 -23.0455 18.0969 4.64624e-05 -35.4231 12.4323 26.6519 -180 -83.9465 180 4.23452 4.35326 0.160994 5.1855 17.1751 -7.378 2.90222 -20.1754 1.94699 -0 -0 20.7175 -2.87556e-05 3.95266 29.787 1.96602 2.41421e-05 -92.1363 -16.6628 1.05202 -27.9273 -0 -0 19.9616 2.86459e-06 5.38794 -4.80039 -0.452194 2.95921e-06 -33.1391 
31.547 85.705 -2.8947 -174.667 32.0499 -160.272 0 -0 0 -7.66137 6.45757 -5.17487 21.449 -7.95184 2.57868e-05 38.7552 3.39495 18.0701 -1.70808e-05 88.0542 -1.72371e-05 -2.20096 5.9957 -0.115297 -22.864 18.0556 4.82345e-06 -35.4067 12.6344 26.4364 -180 -83.9303 180 4.17186 4.25008 0.154901 6.0144 16.7637 -7.29869 3.32055 -19.4796 2.32201 -0 -0 21.5182 -3.70562e-05 6.51008 30.3863 3.30369 -1.5243e-05 -92.9856 -17.0885 1.42104 -27.4966 -0 -0 18.8016 3.91035e-06 5.18924 -4.89652 -0.444097 7.6719e-07 -32.4784 
32.542 85.301 -3.455 -174.213 31.1516 -159.985 0 -0 0 -7.62374 6.39646 -5.43566 21.431 -8.18615 -3.52471e-05 38.2243 3.17067 17.5304 -1.08136e-05 89.1226 -1.06535e-05 -2.14362 5.74324 -0.107502 -22.6604 17.9875 -0.000193842 -35.5082 12.9263 26.114 -180 -83.8876 180 4.14914 4.13324 0.149798 6.82587 16.3732 -7.25737 3.69487 -18.9458 2.57609 -0 -0 22.5571 7.79099e-05 9.46735 30.9539 4.90227 6.99135e-05 -93.2093 -17.2748 1.51248 -27.0819 -0 -0 17.9355 2.63603e-06 5.21994 -5.15137 -0.470008 -8.7548e-07 -30.5112 
33.528 84.855 -4.0231 -173.782 30.3214 -159.713 0 -0 0 -7.62902 6.29977 -5.70129 21.4773 -8.40195 4.584e-05 37.6509 3.0021 16.9993 -180 89.7616 -180 -2.07258 5.45467 -0.0986995 -22.443 17.9156 -5.1761e-06 -35.7118 13.2791 25.6874 180 -83.8273 180 4.16731 3.9919 0.145301 7.62491 16.0158 -7.26683 3.96375 -18.6419 2.696 -0 -0 23.8683 -3.2757e-05 12.6679 31.466 6.69193 5.59207e-06 -92.5658 -17.2539 1.29118 -26.7067 -0 -0 17.4044 3.49145e-06 5.49798 -5.60239 -0.538399 4.70582e-06 -27.1384 
34.494 84.367 -4.6022 -173.414 29.5629 -159.473 0 -0 0 -7.71328 6.14267 -5.96299 21.602 -8.59371 -7.07639e-05 37.0257 2.90894 16.4748 -180 88.7094 -180 -1.97053 5.14864 -0.0886008 -22.2256 17.8414 5.2775e-06 -36.0015 13.692 25.1433 -180 -83.7481 180 4.22252 3.81723 0.140801 8.41223 15.7042 -7.33729 4.06674 -18.6221 2.67735 -0 -0 25.463 -2.56279e-05 15.8834 31.9475 8.56238 -1.00726e-05 -91.523 -17.0787 0.748114 -26.4007 -0 -0 17.2563 -5.82024e-06 6.01148 -6.29142 -0.661187 4.58137e-06 -22.3073 
35.428 83.841 -5.1925 -173.141 28.873 -159.275 0 -0 0 -7.89633 5.90615 -6.21361 21.8078 -8.75681 -2.94925e-05 36.3456 2.90459 15.9463 -180 87.7369 -180 -1.81745 4.84898 -0.0769975 -22.0268 17.7856 -0.000100418 -36.3558 14.1284 24.4871 -180 -83.6483 180 4.31523 3.61147 0.136099 9.18218 15.4455 -7.47802 3.96714 -18.8906 2.51104 -0 -0 27.364 0.00015192 18.8207 32.4051 10.3507 7.7724e-05 -90.0088 -16.8094 -0.0775007 -26.2067 -0 -0 17.5412 -3.12227e-07 6.70923 -7.24275 -0.849714 -3.17545e-06 -16.1368 
36.32 83.283 -5.7933 -172.979 28.2503 -159.121 0 -0 0 -8.18362 5.57833 -6.44599 22.0931 -8.88775 -1.74546e-05 35.6221 2.99473 15.4026 -180 86.7645 -180 -1.59833 4.58282 -0.064002 -21.8699 17.7537 -0.000212082 -36.7585 14.5544 23.7229 -180 -83.55 180 4.44693 3.38274 0.131399 9.92288 15.2428 -7.6943 3.64751 -19.4219 2.19649 -0 -0 29.567 2.21193e-05 21.1694 32.8782 11.8719 4.40501e-05 -88.4738 -16.5135 -1.10811 -26.1688 -0 -0 18.3025 -1.43483e-06 7.50776 -8.44219 -1.1085 7.13516e-07 -9.07093 
37.163 82.698 -6.4021 -172.928 27.6896 -159.006 0 -0 0 -8.55863 5.15805 -6.65361 22.4424 -8.98463 7.25557e-06 34.8764 3.1768 14.8239 -180 85.8581 -180 -1.30336 4.37648 -0.049798 -21.7772 17.7522 -0.000129675 -37.1912 14.9303 22.862 -180 -83.4865 180 4.62212 3.14635 0.126999 10.6146 15.0947 -7.98657 3.11937 -20.1528 1.73454 -0 -0 32.0615 -2.33542e-05 22.6253 33.3977 12.9211 7.76163e-05 -87.1353 -16.2436 -2.24119 -26.3194 -0 -0 19.562 7.8007e-06 8.31076 -9.82615 -1.42803 -1.50688e-08 -1.87734 
37.955 82.098 -7.0168 -172.977 27.1845 -158.923 0 -0 0 -8.99302 4.65578 -6.82788 22.8338 -9.04812 -6.55052e-05 34.1442 3.43756 14.196 -180 85.0224 -180 -0.932392 4.25242 -0.0345998 -21.767 17.7896 -2.58507e-05 -37.6533 15.2018 21.9268 -180 -83.4824 180 4.84951 2.92036 0.123699 11.2318 14.9919 -8.3512 2.41022 -21.0114 1.13478 -0 -0 34.8045 -0.000133133 22.9301 33.9892 13.3059 7.52855e-05 -86.602 -16.0363 -3.38441 -26.6669 -0 -0 21.2977 1.76161e-06 9.04075 -11.3087 178.213 -2.15604e-07 -4.6574 
38.693 81.493 -7.6351 -173.102 26.7293 -158.861 0 -0 0 -9.44177 4.09264 -6.96256 23.2376 -9.07979 -5.44047e-05 33.4659 3.75422 13.5056 -180 84.263 -180 -0.496406 4.22384 -0.0183 -21.8599 17.8574 -0.000139412 -38.133 15.3386 20.9332 -180 -83.5576 180 5.13697 2.7257 0.122303 11.7456 14.9189 -8.7792 1.56666 -21.8994 0.405811 -0 -0 37.7592 8.03094e-05 21.8899 34.5933 12.8502 -3.49275e-06 -86.3916 -15.8984 -4.46624 -27.1876 -0 -0 23.4413 -2.36895e-05 9.65143 -12.8191 177.839 -6.73592e-06 -10.0639 
39.378 80.897 -8.2577 -173.282 26.3208 -158.818 0 -0 0 -9.86819 3.49864 -7.04903 23.6263 -9.08338 2.95556e-05 32.8827 4.09914 12.744 -180 83.6008 -180 -0.0158001 4.29407 -0.000600016 -22.0597 17.9534 -5.71533e-05 -38.6386 15.2916 19.9095 -180 -83.7625 180 5.49439 2.57923 0.123801 12.1316 14.8628 -9.25692 0.630102 -22.7376 -0.43571 -0 -0 40.8562 2.70469e-05 19.4208 35.1172 11.4647 -1.0233e-05 -86.3602 -15.8344 -5.44356 -27.8275 -0 -0 25.868 5.98588e-05 10.1324 -14.3068 177.471 1.03098e-05 -14.2368 
40.012 80.323 -8.886 -173.494 25.9546 -158.79 0 -0 0 -10.2394 2.90766 -7.0837 23.9775 -9.06477 -6.03539e-05 32.4371 4.4399 11.9096 -180 83.0306 -180 0.479699 4.4547 0.0186998 -22.3699 18.0646 4.6866e-05 -39.1744 15.0342 18.8837 -180 -84.1276 180 5.92831 2.49416 0.1292 12.3692 14.8017 -9.76759 -0.356618 -23.4367 -1.37517 -0 -0 44.0192 7.77368e-06 15.5936 35.3966 9.18263 -6.3572e-05 -85.8004 -15.836 -6.29211 -28.5158 -0 -0 28.429 -5.96907e-05 10.4962 -15.7375 177.123 -1.75962e-05 -17.2479 
40.598 79.789 -9.5216 -173.713 25.6289 -158.773 0 -0 0 -10.5267 2.35253 -7.06776 24.2756 -9.02923 -6.17791e-05 32.1584 4.74267 11.0078 -180 82.5554 -180 0.955602 4.68588 0.0391002 -22.7848 18.1714 1.39902e-05 -39.7454 14.5616 17.8733 -180 -84.6499 180 6.43979 2.47765 0.139396 12.4457 14.7195 -10.2908 -1.34762 -23.9215 -2.39998 -0 -0 47.1584 -7.41159e-06 10.6698 35.2652 6.20798 -3.50719e-05 -84.2218 -15.8857 -6.99999 -29.1785 -0 -0 30.962 8.27109e-05 10.7667 -17.0876 176.802 -5.19948e-06 -19.3021 
41.14 79.307 -10.166 -173.923 25.3404 -158.761 0 -0 0 -10.7128 1.86106 -7.00966 24.5121 -8.98225 -7.06498e-05 32.066 4.97538 10.0499 -180 82.1771 -180 1.37683 4.96117 0.059601 -23.2924 18.2542 -2.10428e-05 -40.355 13.8779 16.9029 -180 -85.3676 180 7.02414 2.52896 0.155204 12.3565 14.6027 -10.8022 -2.30348 -24.1229 -3.50417 -0 -0 50.1842 -3.56008e-05 5.08524 34.6228 2.89437 2.1981e-05 -81.6164 -15.9678 -7.57008 -29.7537 -0 -0 33.3265 7.31003e-05 10.9736 -18.3431 176.508 -9.18394e-06 -20.5882 
41.641 78.892 -10.82 -174.103 25.0844 -158.742 0 -0 0 -10.7801 1.45307 -6.9241 24.6856 -8.92956 7.26788e-05 32.1686 5.11322 9.05304 -180 81.8879 -180 1.71057 5.25185 0.0784993 -23.8722 18.3011 0.000174702 -41.0091 12.9993 15.9945 -180 -86.2389 180 7.6697 2.63978 0.176995 12.1051 14.4407 -11.2797 -3.18538 -23.988 -4.69462 -0 -0 53.0417 -3.43384e-06 -0.615503 33.4389 -0.339196 6.71507e-07 -77.6411 -16.0583 -8.01068 -30.1954 -0 -0 35.4072 1.26769e-05 11.1422 -19.492 176.24 -1.58345e-05 -21.2534 
42.109 78.552 -11.481 -174.231 24.8548 -158.7 0 -0 0 -10.7141 1.13919 -6.82977 24.7984 -8.87516 3.30609e-05 32.462 5.13764 8.03645 -180 81.6922 -180 1.93109 5.52992 0.0933006 -24.5038 18.3003 -6.11442e-06 -41.7099 11.9619 15.1639 -180 -87.2661 180 8.35751 2.79621 0.204297 11.6997 14.2337 -11.6984 -3.95736 -23.4777 -5.98048 -0 -0 55.6785 1.72124e-05 -5.94603 31.8247 -3.14372 1.75256e-05 -72.8173 -16.1282 -8.33425 -30.4778 -0 -0 37.1231 -9.30885e-05 11.2911 -20.5294 175.995 -3.49344e-06 -21.4441 
42.551 78.294 -12.148 -174.29 24.6442 -158.621 0 -0 0 -10.504 0.91976 -6.74566 24.8541 -8.82197 2.37955e-05 32.9345 5.0408 7.02159 -180 81.5722 -180 2.02092 5.7724 0.1019 -25.1601 18.2451 -9.07335e-06 -42.4573 10.8144 14.426 180 -88.4127 180 9.06186 2.97966 0.236196 11.1535 13.985 -12.0404 -4.59246 -22.5848 -7.37001 -0 -0 58.0782 5.91085e-05 -10.5505 29.94 -5.31094 2.41834e-05 -67.4577 -16.1493 -8.55568 -30.5863 -0 -0 38.4297 1.3862e-05 11.4291 -21.4488 175.772 -4.13813e-06 -21.2807 
42.973 78.119 -12.822 -174.262 24.4465 -158.492 0 -0 0 -10.1435 0.78592 -6.68748 24.8603 -8.77287 6.41189e-06 33.5631 4.82554 6.02905 -180 81.5307 -180 1.9722 5.96356 0.102701 -25.8145 18.1342 -0.00018495 -43.2526 9.61382 13.7903 180 -89.6514 180 9.75221 3.17041 0.270506 10.4863 13.7085 -12.2902 -5.07538 -21.3228 -8.8597 -0 -0 60.221 4.01403e-05 -14.2551 27.9738 -6.79613 -1.7191e-05 -62.3045 -16.0981 -8.69078 -30.5187 -0 -0 39.3109 9.63402e-06 11.5554 -22.2486 175.573 -1.11961e-05 -20.8742 
43.386 78.025 -13.503 -174.14 24.2492 -158.311 0 -0 0 -9.63152 0.718952 -6.66444 24.8268 -8.72921 -4.35392e-05 34.3202 4.50364 5.07812 -180 81.5698 -180 1.7889 6.09402 0.0952012 -26.4392 17.968 0.000114818 -44.0895 8.42252 13.262 -7.16806e-06 -89.233 7.0756e-06 10.3949 3.34936 0.304792 9.71759 13.4183 -12.4393 -5.40356 -19.7293 -10.4328 -0 -0 62.0951 8.78159e-05 -17.0129 26.0671 -7.65772 -3.87159e-05 -57.8291 -15.9552 -8.7553 -30.2773 -0 -0 39.7722 6.42971e-05 11.6596 -22.9228 175.405 -2.88496e-06 -20.3251 
43.794 78.005 -14.196 -173.925 24.0421 -158.083 0 -0 0 -8.97973 0.692251 -6.67561 24.7659 -8.69329 1.0535e-05 35.1698 4.09711 4.18597 -180 81.6721 -180 1.48346 6.16163 0.0798982 -27.0098 17.7567 -0.000243427 -44.9614 7.29707 12.8426 8.08266e-06 -88.1648 -8.34416e-06 10.9574 3.50108 0.335901 8.87072 13.1363 -12.4883 -5.59806 -17.8707 -12.0585 -0 -0 63.6939 -3.00393e-05 -18.8401 24.2828 -7.98769 -9.52027e-06 -54.2958 -15.713 -8.76749 -29.86 -0 -0 39.8374 -0.000193895 11.7288 -23.4654 175.274 7.87244e-07 -19.7275 
44.204 78.053 -14.905 -173.625 23.8125 -157.816 0 -0 0 -8.20276 0.672076 -6.71746 24.6926 -8.67077 3.74939e-05 36.0769 3.63737 3.37058 -180 81.844 -180 1.07749 6.16982 0.0580992 -27.5026 17.5116 -0.000103903 -45.8545 6.28103 12.5351 -5.08007e-06 -87.2359 4.84134e-06 11.4091 3.61473 0.3612 7.96587 12.8834 -12.4459 -5.68497 -15.825 -13.7027 -0 -0 65.0114 4.65726e-05 -19.7952 22.6188 -7.88129 3.54718e-05 -51.6634 -15.3756 -8.74928 -29.2741 -0 -0 39.5457 -0.000150007 11.7457 -23.8644 175.192 -4.86166e-06 -19.1589 
